# xmcd CD database file
#
# Track frame offsets:
#	150
#	15230
#	25365
#	46625
#	63370
#	87690
#	109035
#	129215
#	149850
#	175367
#
# Disc length: 2565 seconds
#
# Revision: 0
# Processed by: cddbd v1.5PL3 Copyright (c) Steve Scherf et al.
# Submitted via: CDex 1.51
#
DISCID=830a030a
DTITLE=CRAZE - craze
DYEAR=2001
DGENRE=Rock
TTITLE0=GALLOP
TTITLE1=ARMY
TTITLE2=きみのもとへ
TTITLE3=汚れ者RHAPSODY
TTITLE4=WITH
TTITLE5=I WANNA GO
TTITLE6=VOO DOO LOVE
TTITLE7=Knock Your Soul
TTITLE8=朝日
TTITLE9=交錯
EXTD=YEAR: 2001.3.7
EXTT0=
EXTT1=
EXTT2=
EXTT3=
EXTT4=
EXTT5=
EXTT6=
EXTT7=
EXTT8=
EXTT9=
PLAYORDER=
